<?xml version="1.0" encoding="UTF-8" standalone="no"?>
<!DOCTYPE svg PUBLIC "-//W3C//DTD SVG 1.1//EN"
 "http://www.w3.org/Graphics/SVG/1.1/DTD/svg11.dtd">
<!-- Generated by graphviz version 2.40.1 (20161225.0304)
 -->
<!-- Title: dependencies Pages: 1 -->
<svg width="710pt" height="211pt"
 viewBox="0.00 0.00 710.00 211.00" xmlns="http://www.w3.org/2000/svg" xmlns:xlink="http://www.w3.org/1999/xlink">
<g id="graph0" class="graph" transform="scale(1 1) rotate(0) translate(4 207)">
<title>dependencies</title>
<polygon fill="#ffffff" stroke="transparent" points="-4,4 -4,-207 706,-207 706,4 -4,4"/>
<text text-anchor="start" x="330.0091" y="-42.4" font-family="sans-serif" font-weight="bold" font-size="14.00" fill="#000000">Legend</text>
<polygon fill="#ffffb3" stroke="transparent" points="117,-10 117,-30 137,-30 137,-10 117,-10"/>
<text text-anchor="start" x="140.629" y="-15.4" font-family="sans-serif" font-size="14.00" fill="#000000"> &#160;Declarations</text>
<polygon fill="#8dd3c7" stroke="transparent" points="230,-10 230,-30 250,-30 250,-10 230,-10"/>
<text text-anchor="start" x="253.7251" y="-15.4" font-family="sans-serif" font-size="14.00" fill="#000000"> &#160;Module</text>
<polygon fill="#80b1d3" stroke="transparent" points="316,-10 316,-30 336,-30 336,-10 316,-10"/>
<text text-anchor="start" x="339.7812" y="-15.4" font-family="sans-serif" font-size="14.00" fill="#000000"> &#160;Bootstrap</text>
<polygon fill="#fdb462" stroke="transparent" points="413,-10 413,-30 433,-30 433,-10 413,-10"/>
<text text-anchor="start" x="436.6732" y="-15.4" font-family="sans-serif" font-size="14.00" fill="#000000"> &#160;Providers</text>
<polygon fill="#fb8072" stroke="transparent" points="509,-10 509,-30 529,-30 529,-10 509,-10"/>
<text text-anchor="start" x="532.7258" y="-15.4" font-family="sans-serif" font-size="14.00" fill="#000000"> &#160;Exports</text>
<g id="clust1" class="cluster">
<title>cluster_EditionModule</title>
<polygon fill="none" stroke="#000000" stroke-dasharray="1,5" points="8,-70 8,-195 694,-195 694,-70 8,-70"/>
</g>
<g id="clust2" class="cluster">
<title>cluster_EditionModule_declarations</title>
<polygon fill="none" stroke="#000000" points="186,-78 186,-130 686,-130 686,-78 186,-78"/>
</g>
<g id="clust7" class="cluster">
<title>cluster_EditionModule_imports</title>
<polygon fill="none" stroke="#000000" points="16,-78 16,-130 178,-130 178,-78 16,-78"/>
</g>
<!-- AnAuteursComponent -->
<g id="node1" class="node">
<title>AnAuteursComponent</title>
<polygon fill="#ffffb3" stroke="#000000" points="678.2562,-122 535.7438,-122 535.7438,-86 678.2562,-86 678.2562,-122"/>
<text text-anchor="middle" x="607" y="-99.8" font-family="Times,serif" font-size="14.00" fill="#000000">AnAuteursComponent</text>
</g>
<!-- EditionModule -->
<g id="node5" class="node">
<title>EditionModule</title>
<polygon fill="#8dd3c7" stroke="#000000" points="372.2745,-187 369.2745,-191 348.2745,-191 345.2745,-187 271.7255,-187 271.7255,-151 372.2745,-151 372.2745,-187"/>
<text text-anchor="middle" x="322" y="-164.8" font-family="Times,serif" font-size="14.00" fill="#000000">EditionModule</text>
</g>
<!-- AnAuteursComponent&#45;&gt;EditionModule -->
<g id="edge1" class="edge">
<title>AnAuteursComponent&#45;&gt;EditionModule</title>
<path fill="none" stroke="#000000" d="M607,-122.1061C607,-141.3391 607,-169 607,-169 607,-169 382.2962,-169 382.2962,-169"/>
<polygon fill="#000000" stroke="#000000" points="382.2963,-165.5001 372.2962,-169 382.2962,-172.5001 382.2963,-165.5001"/>
</g>
<!-- AnEditionComponent -->
<g id="node2" class="node">
<title>AnEditionComponent</title>
<polygon fill="#ffffb3" stroke="#000000" points="517.6638,-122 378.3362,-122 378.3362,-86 517.6638,-86 517.6638,-122"/>
<text text-anchor="middle" x="448" y="-99.8" font-family="Times,serif" font-size="14.00" fill="#000000">AnEditionComponent</text>
</g>
<!-- AnEditionComponent&#45;&gt;EditionModule -->
<g id="edge2" class="edge">
<title>AnEditionComponent&#45;&gt;EditionModule</title>
<path fill="none" stroke="#000000" d="M378.2384,-104C370.9632,-104 366.1631,-104 366.1631,-104 366.1631,-104 366.1631,-140.8939 366.1631,-140.8939"/>
<polygon fill="#000000" stroke="#000000" points="362.6631,-140.8938 366.1631,-150.8939 369.6631,-140.8939 362.6631,-140.8938"/>
</g>
<!-- FiltrerPipe -->
<g id="node3" class="node">
<title>FiltrerPipe</title>
<polygon fill="#ffffb3" stroke="#000000" points="359.8781,-122 284.1219,-122 284.1219,-86 359.8781,-86 359.8781,-122"/>
<text text-anchor="middle" x="322" y="-99.8" font-family="Times,serif" font-size="14.00" fill="#000000">FiltrerPipe</text>
</g>
<!-- FiltrerPipe&#45;&gt;EditionModule -->
<g id="edge3" class="edge">
<title>FiltrerPipe&#45;&gt;EditionModule</title>
<path fill="none" stroke="#000000" d="M322,-122.1061C322,-122.1061 322,-140.991 322,-140.991"/>
<polygon fill="#000000" stroke="#000000" points="318.5001,-140.9909 322,-150.991 325.5001,-140.991 318.5001,-140.9909"/>
</g>
<!-- NewsPipe -->
<g id="node4" class="node">
<title>NewsPipe</title>
<polygon fill="#ffffb3" stroke="#000000" points="266.2606,-122 193.7394,-122 193.7394,-86 266.2606,-86 266.2606,-122"/>
<text text-anchor="middle" x="230" y="-99.8" font-family="Times,serif" font-size="14.00" fill="#000000">NewsPipe</text>
</g>
<!-- NewsPipe&#45;&gt;EditionModule -->
<g id="edge4" class="edge">
<title>NewsPipe&#45;&gt;EditionModule</title>
<path fill="none" stroke="#000000" d="M266.742,-104C273.1654,-104 277.837,-104 277.837,-104 277.837,-104 277.837,-140.8939 277.837,-140.8939"/>
<polygon fill="#000000" stroke="#000000" points="274.337,-140.8938 277.837,-150.8939 281.337,-140.8939 274.337,-140.8938"/>
</g>
<!-- EditionRoutingModule -->
<g id="node6" class="node">
<title>EditionRoutingModule</title>
<polygon fill="#8dd3c7" stroke="#000000" points="169.892,-122 166.892,-126 145.892,-126 142.892,-122 24.108,-122 24.108,-86 169.892,-86 169.892,-122"/>
<text text-anchor="middle" x="97" y="-99.8" font-family="Times,serif" font-size="14.00" fill="#000000">EditionRoutingModule</text>
</g>
<!-- EditionRoutingModule&#45;&gt;EditionModule -->
<g id="edge5" class="edge">
<title>EditionRoutingModule&#45;&gt;EditionModule</title>
<path fill="none" stroke="#000000" d="M97,-122.1061C97,-141.3391 97,-169 97,-169 97,-169 261.5056,-169 261.5056,-169"/>
<polygon fill="#000000" stroke="#000000" points="261.5056,-172.5001 271.5056,-169 261.5056,-165.5001 261.5056,-172.5001"/>
</g>
</g>
</svg>
