<?xml version="1.0" encoding="UTF-8" standalone="no"?>
<!DOCTYPE svg PUBLIC "-//W3C//DTD SVG 1.1//EN"
 "http://www.w3.org/Graphics/SVG/1.1/DTD/svg11.dtd">
<!-- Generated by graphviz version 2.40.1 (20161225.0304)
 -->
<!-- Title: dependencies Pages: 1 -->
<svg width="2306pt" height="284pt"
 viewBox="0.00 0.00 2306.00 284.00" xmlns="http://www.w3.org/2000/svg" xmlns:xlink="http://www.w3.org/1999/xlink">
<g id="graph0" class="graph" transform="scale(1 1) rotate(0) translate(4 280)">
<title>dependencies</title>
<polygon fill="#ffffff" stroke="transparent" points="-4,4 -4,-280 2302,-280 2302,4 -4,4"/>
<text text-anchor="start" x="1128.0091" y="-42.4" font-family="sans-serif" font-weight="bold" font-size="14.00" fill="#000000">Legend</text>
<polygon fill="#ffffb3" stroke="transparent" points="915,-10 915,-30 935,-30 935,-10 915,-10"/>
<text text-anchor="start" x="938.629" y="-15.4" font-family="sans-serif" font-size="14.00" fill="#000000"> &#160;Declarations</text>
<polygon fill="#8dd3c7" stroke="transparent" points="1028,-10 1028,-30 1048,-30 1048,-10 1028,-10"/>
<text text-anchor="start" x="1051.7251" y="-15.4" font-family="sans-serif" font-size="14.00" fill="#000000"> &#160;Module</text>
<polygon fill="#80b1d3" stroke="transparent" points="1114,-10 1114,-30 1134,-30 1134,-10 1114,-10"/>
<text text-anchor="start" x="1137.7812" y="-15.4" font-family="sans-serif" font-size="14.00" fill="#000000"> &#160;Bootstrap</text>
<polygon fill="#fdb462" stroke="transparent" points="1211,-10 1211,-30 1231,-30 1231,-10 1211,-10"/>
<text text-anchor="start" x="1234.6732" y="-15.4" font-family="sans-serif" font-size="14.00" fill="#000000"> &#160;Providers</text>
<polygon fill="#fb8072" stroke="transparent" points="1307,-10 1307,-30 1327,-30 1327,-10 1307,-10"/>
<text text-anchor="start" x="1330.7258" y="-15.4" font-family="sans-serif" font-size="14.00" fill="#000000"> &#160;Exports</text>
<g id="clust1" class="cluster">
<title>cluster_AppModule</title>
<polygon fill="none" stroke="#000000" stroke-dasharray="1,5" points="8,-70 8,-268 2290,-268 2290,-70 8,-70"/>
</g>
<g id="clust2" class="cluster">
<title>cluster_AppModule_declarations</title>
<polygon fill="none" stroke="#000000" points="831,-78 831,-130 2282,-130 2282,-78 831,-78"/>
</g>
<g id="clust12" class="cluster">
<title>cluster_AppModule_imports</title>
<polygon fill="none" stroke="#000000" points="679,-78 679,-130 823,-130 823,-78 679,-78"/>
</g>
<g id="clust14" class="cluster">
<title>cluster_AppModule_bootstrap</title>
<polygon fill="none" stroke="#000000" points="1048,-208 1048,-260 1172,-260 1172,-208 1048,-208"/>
</g>
<g id="clust15" class="cluster">
<title>cluster_AppModule_providers</title>
<polygon fill="none" stroke="#000000" points="16,-78 16,-130 671,-130 671,-78 16,-78"/>
</g>
<!-- AnConnexionComponent -->
<g id="node1" class="node">
<title>AnConnexionComponent</title>
<polygon fill="#ffffb3" stroke="#000000" points="2273.8808,-122 2114.1192,-122 2114.1192,-86 2273.8808,-86 2273.8808,-122"/>
<text text-anchor="middle" x="2194" y="-99.8" font-family="Times,serif" font-size="14.00" fill="#000000">AnConnexionComponent</text>
</g>
<!-- AppModule -->
<g id="node10" class="node">
<title>AppModule</title>
<polygon fill="#8dd3c7" stroke="#000000" points="1151.6571,-187 1148.6571,-191 1127.6571,-191 1124.6571,-187 1068.3429,-187 1068.3429,-151 1151.6571,-151 1151.6571,-187"/>
<text text-anchor="middle" x="1110" y="-164.8" font-family="Times,serif" font-size="14.00" fill="#000000">AppModule</text>
</g>
<!-- AnConnexionComponent&#45;&gt;AppModule -->
<g id="edge1" class="edge">
<title>AnConnexionComponent&#45;&gt;AppModule</title>
<path fill="none" stroke="#000000" d="M2194,-122.0908C2194,-145.1328 2194,-182 2194,-182 2194,-182 1161.8299,-182 1161.8299,-182"/>
<polygon fill="#000000" stroke="#000000" points="1161.8299,-178.5001 1151.8299,-182 1161.8298,-185.5001 1161.8299,-178.5001"/>
</g>
<!-- AnewsAuteurComponent -->
<g id="node2" class="node">
<title>AnewsAuteurComponent</title>
<polygon fill="#ffffb3" stroke="#000000" points="2096.5772,-122 1937.4228,-122 1937.4228,-86 2096.5772,-86 2096.5772,-122"/>
<text text-anchor="middle" x="2017" y="-99.8" font-family="Times,serif" font-size="14.00" fill="#000000">AnewsAuteurComponent</text>
</g>
<!-- AnewsAuteurComponent&#45;&gt;AppModule -->
<g id="edge2" class="edge">
<title>AnewsAuteurComponent&#45;&gt;AppModule</title>
<path fill="none" stroke="#000000" d="M2017,-122.0449C2017,-143.6623 2017,-177 2017,-177 2017,-177 1161.9274,-177 1161.9274,-177"/>
<polygon fill="#000000" stroke="#000000" points="1161.9275,-173.5001 1151.9274,-177 1161.9274,-180.5001 1161.9275,-173.5001"/>
</g>
<!-- AnewsComponent -->
<g id="node3" class="node">
<title>AnewsComponent</title>
<polygon fill="#ffffb3" stroke="#000000" points="1919.205,-122 1798.795,-122 1798.795,-86 1919.205,-86 1919.205,-122"/>
<text text-anchor="middle" x="1859" y="-99.8" font-family="Times,serif" font-size="14.00" fill="#000000">AnewsComponent</text>
</g>
<!-- AnewsComponent&#45;&gt;AppModule -->
<g id="edge3" class="edge">
<title>AnewsComponent&#45;&gt;AppModule</title>
<path fill="none" stroke="#000000" d="M1859,-122.2228C1859,-142.3652 1859,-172 1859,-172 1859,-172 1161.8744,-172 1161.8744,-172"/>
<polygon fill="#000000" stroke="#000000" points="1161.8745,-168.5001 1151.8744,-172 1161.8744,-175.5001 1161.8745,-168.5001"/>
</g>
<!-- AnewsDetailComponent -->
<g id="node4" class="node">
<title>AnewsDetailComponent</title>
<polygon fill="#ffffb3" stroke="#000000" points="1781.413,-122 1626.587,-122 1626.587,-86 1781.413,-86 1781.413,-122"/>
<text text-anchor="middle" x="1704" y="-99.8" font-family="Times,serif" font-size="14.00" fill="#000000">AnewsDetailComponent</text>
</g>
<!-- AnewsDetailComponent&#45;&gt;AppModule -->
<g id="edge4" class="edge">
<title>AnewsDetailComponent&#45;&gt;AppModule</title>
<path fill="none" stroke="#000000" d="M1704,-122.2222C1704,-140.8285 1704,-167 1704,-167 1704,-167 1161.7689,-167 1161.7689,-167"/>
<polygon fill="#000000" stroke="#000000" points="1161.769,-163.5001 1151.7689,-167 1161.7689,-170.5001 1161.769,-163.5001"/>
</g>
<!-- AnewsRelativeComponent -->
<g id="node5" class="node">
<title>AnewsRelativeComponent</title>
<polygon fill="#ffffb3" stroke="#000000" points="1608.3571,-122 1441.6429,-122 1441.6429,-86 1608.3571,-86 1608.3571,-122"/>
<text text-anchor="middle" x="1525" y="-99.8" font-family="Times,serif" font-size="14.00" fill="#000000">AnewsRelativeComponent</text>
</g>
<!-- AnewsRelativeComponent&#45;&gt;AppModule -->
<g id="edge5" class="edge">
<title>AnewsRelativeComponent&#45;&gt;AppModule</title>
<path fill="none" stroke="#000000" d="M1525,-122.0336C1525,-139.0597 1525,-162 1525,-162 1525,-162 1161.6919,-162 1161.6919,-162"/>
<polygon fill="#000000" stroke="#000000" points="1161.6919,-158.5001 1151.6919,-162 1161.6919,-165.5001 1161.6919,-158.5001"/>
</g>
<!-- AnewsreserveesComponent -->
<g id="node6" class="node">
<title>AnewsreserveesComponent</title>
<polygon fill="#ffffb3" stroke="#000000" points="1423.2738,-122 1250.7262,-122 1250.7262,-86 1423.2738,-86 1423.2738,-122"/>
<text text-anchor="middle" x="1337" y="-99.8" font-family="Times,serif" font-size="14.00" fill="#000000">AnewsreserveesComponent</text>
</g>
<!-- AnewsreserveesComponent&#45;&gt;AppModule -->
<g id="edge6" class="edge">
<title>AnewsreserveesComponent&#45;&gt;AppModule</title>
<path fill="none" stroke="#000000" d="M1337,-122.2396C1337,-137.5706 1337,-157 1337,-157 1337,-157 1161.8998,-157 1161.8998,-157"/>
<polygon fill="#000000" stroke="#000000" points="1161.8999,-153.5001 1151.8998,-157 1161.8998,-160.5001 1161.8999,-153.5001"/>
</g>
<!-- AppComponent -->
<g id="node7" class="node">
<title>AppComponent</title>
<polygon fill="#ffffb3" stroke="#000000" points="1232.9399,-122 1127.0601,-122 1127.0601,-86 1232.9399,-86 1232.9399,-122"/>
<text text-anchor="middle" x="1180" y="-99.8" font-family="Times,serif" font-size="14.00" fill="#000000">AppComponent</text>
</g>
<!-- AppComponent&#45;&gt;AppModule -->
<g id="edge7" class="edge">
<title>AppComponent&#45;&gt;AppModule</title>
<path fill="none" stroke="#000000" d="M1139.5543,-122.1061C1139.5543,-122.1061 1139.5543,-140.991 1139.5543,-140.991"/>
<polygon fill="#000000" stroke="#000000" points="1136.0544,-140.9909 1139.5543,-150.991 1143.0544,-140.991 1136.0544,-140.9909"/>
</g>
<!-- Erreur404Component -->
<g id="node8" class="node">
<title>Erreur404Component</title>
<polygon fill="#ffffb3" stroke="#000000" points="1109.0814,-122 970.9186,-122 970.9186,-86 1109.0814,-86 1109.0814,-122"/>
<text text-anchor="middle" x="1040" y="-99.8" font-family="Times,serif" font-size="14.00" fill="#000000">Erreur404Component</text>
</g>
<!-- Erreur404Component&#45;&gt;AppModule -->
<g id="edge8" class="edge">
<title>Erreur404Component&#45;&gt;AppModule</title>
<path fill="none" stroke="#000000" d="M1088.6063,-122.1061C1088.6063,-122.1061 1088.6063,-140.991 1088.6063,-140.991"/>
<polygon fill="#000000" stroke="#000000" points="1085.1063,-140.9909 1088.6063,-150.991 1092.1063,-140.991 1085.1063,-140.9909"/>
</g>
<!-- MenuComponent -->
<g id="node9" class="node">
<title>MenuComponent</title>
<polygon fill="#ffffb3" stroke="#000000" points="952.9916,-122 839.0084,-122 839.0084,-86 952.9916,-86 952.9916,-122"/>
<text text-anchor="middle" x="896" y="-99.8" font-family="Times,serif" font-size="14.00" fill="#000000">MenuComponent</text>
</g>
<!-- MenuComponent&#45;&gt;AppModule -->
<g id="edge9" class="edge">
<title>MenuComponent&#45;&gt;AppModule</title>
<path fill="none" stroke="#000000" d="M896,-122.2396C896,-137.5706 896,-157 896,-157 896,-157 1058.2306,-157 1058.2306,-157"/>
<polygon fill="#000000" stroke="#000000" points="1058.2307,-160.5001 1068.2306,-157 1058.2306,-153.5001 1058.2307,-160.5001"/>
</g>
<!-- AppComponent  -->
<g id="node12" class="node">
<title>AppComponent </title>
<polygon fill="#80b1d3" stroke="#000000" points="1164.439,-252 1055.561,-252 1055.561,-216 1164.439,-216 1164.439,-252"/>
<text text-anchor="middle" x="1110" y="-229.8" font-family="Times,serif" font-size="14.00" fill="#000000">AppComponent </text>
</g>
<!-- AppModule&#45;&gt;AppComponent  -->
<g id="edge11" class="edge">
<title>AppModule&#45;&gt;AppComponent </title>
<path fill="none" stroke="#000000" stroke-dasharray="1,5" d="M1110,-187.1061C1110,-187.1061 1110,-205.991 1110,-205.991"/>
<polygon fill="#000000" stroke="#000000" points="1106.5001,-205.9909 1110,-215.991 1113.5001,-205.991 1106.5001,-205.9909"/>
</g>
<!-- AppRoutingModule -->
<g id="node11" class="node">
<title>AppRoutingModule</title>
<polygon fill="#8dd3c7" stroke="#000000" points="815.2744,-122 812.2744,-126 791.2744,-126 788.2744,-122 686.7256,-122 686.7256,-86 815.2744,-86 815.2744,-122"/>
<text text-anchor="middle" x="751" y="-99.8" font-family="Times,serif" font-size="14.00" fill="#000000">AppRoutingModule</text>
</g>
<!-- AppRoutingModule&#45;&gt;AppModule -->
<g id="edge10" class="edge">
<title>AppRoutingModule&#45;&gt;AppModule</title>
<path fill="none" stroke="#000000" d="M751,-122.0336C751,-139.0597 751,-162 751,-162 751,-162 1058.1155,-162 1058.1155,-162"/>
<polygon fill="#000000" stroke="#000000" points="1058.1156,-165.5001 1068.1155,-162 1058.1155,-158.5001 1058.1156,-165.5001"/>
</g>
<!-- AnewsService -->
<g id="node13" class="node">
<title>AnewsService</title>
<ellipse fill="#fdb462" stroke="#000000" cx="596" cy="-104" rx="66.6113" ry="18"/>
<text text-anchor="middle" x="596" y="-99.8" font-family="Times,serif" font-size="14.00" fill="#000000">AnewsService</text>
</g>
<!-- AnewsService&#45;&gt;AppModule -->
<g id="edge12" class="edge">
<title>AnewsService&#45;&gt;AppModule</title>
<path fill="none" stroke="#000000" d="M596,-122.2222C596,-140.8285 596,-167 596,-167 596,-167 1057.9372,-167 1057.9372,-167"/>
<polygon fill="#000000" stroke="#000000" points="1057.9373,-170.5001 1067.9372,-167 1057.9372,-163.5001 1057.9373,-170.5001"/>
</g>
<!-- AuthIntercepteur -->
<g id="node14" class="node">
<title>AuthIntercepteur</title>
<ellipse fill="#fdb462" stroke="#000000" cx="434" cy="-104" rx="76.9849" ry="18"/>
<text text-anchor="middle" x="434" y="-99.8" font-family="Times,serif" font-size="14.00" fill="#000000">AuthIntercepteur</text>
</g>
<!-- AuthIntercepteur&#45;&gt;AppModule -->
<g id="edge13" class="edge">
<title>AuthIntercepteur&#45;&gt;AppModule</title>
<path fill="none" stroke="#000000" d="M434,-122.2228C434,-142.3652 434,-172 434,-172 434,-172 1058.2233,-172 1058.2233,-172"/>
<polygon fill="#000000" stroke="#000000" points="1058.2234,-175.5001 1068.2233,-172 1058.2233,-168.5001 1058.2234,-175.5001"/>
</g>
<!-- AuthService -->
<g id="node15" class="node">
<title>AuthService</title>
<ellipse fill="#fdb462" stroke="#000000" cx="280" cy="-104" rx="59.1083" ry="18"/>
<text text-anchor="middle" x="280" y="-99.8" font-family="Times,serif" font-size="14.00" fill="#000000">AuthService</text>
</g>
<!-- AuthService&#45;&gt;AppModule -->
<g id="edge14" class="edge">
<title>AuthService&#45;&gt;AppModule</title>
<path fill="none" stroke="#000000" d="M280,-122.0449C280,-143.6623 280,-177 280,-177 280,-177 1058.2714,-177 1058.2714,-177"/>
<polygon fill="#000000" stroke="#000000" points="1058.2714,-180.5001 1068.2714,-177 1058.2713,-173.5001 1058.2714,-180.5001"/>
</g>
<!-- SecuriteIntercepteur -->
<g id="node16" class="node">
<title>SecuriteIntercepteur</title>
<ellipse fill="#fdb462" stroke="#000000" cx="113" cy="-104" rx="89.1395" ry="18"/>
<text text-anchor="middle" x="113" y="-99.8" font-family="Times,serif" font-size="14.00" fill="#000000">SecuriteIntercepteur</text>
</g>
<!-- SecuriteIntercepteur&#45;&gt;AppModule -->
<g id="edge15" class="edge">
<title>SecuriteIntercepteur&#45;&gt;AppModule</title>
<path fill="none" stroke="#000000" d="M113,-122.0908C113,-145.1328 113,-182 113,-182 113,-182 1058.1138,-182 1058.1138,-182"/>
<polygon fill="#000000" stroke="#000000" points="1058.1138,-185.5001 1068.1138,-182 1058.1137,-178.5001 1058.1138,-185.5001"/>
</g>
</g>
</svg>
